<svg xmlns="http://www.w3.org/2000/svg" width="35" height="35" viewBox="0 0 35 35"><defs><style>.a{fill:#fff;}.b{fill:none;}</style></defs><g transform="translate(-9.238 -15)"><path class="a" d="M5.821,25.491V22.785A10.314,10.314,0,0,1,.59,20.76L2.7,18.217c2.506,2.136,8.784,1.7,8.435-1.209-.329-2.724-4.785-2.438-6.738-3.169-2.9-1.091-5.2-4-4.124-7.379.7-2.192,3.021-3.32,5.55-3.643V0H8.653V2.8a10.253,10.253,0,0,1,4.815,1.946l-1.98,2.644a7.508,7.508,0,0,0-7.138-.91,2.111,2.111,0,0,0-.163,3.524c1.4,1.088,3.372,1.088,5.073,1.558,2.62.726,5.281,2.77,5.183,5.781a5.144,5.144,0,0,1-2.265,4.087,8.6,8.6,0,0,1-3.525,1.312v2.747Z" transform="translate(19.669 20)"/><rect class="b" width="35" height="35" transform="translate(9.238 15)"/></g></svg>