<svg width="27" height="27" xmlns="http://www.w3.org/2000/svg">
  <defs>
    <style>.a{fill:#666EE8;}.b{fill:none;}</style>
  </defs>
  <g>
    <title>background</title>
    <rect x="-1" y="-1" width="29" height="29" id="canvas_background" fill="none"/>
  </g>
  <g>
    <title>Layer 1</title>
    <g id="svg_1">
      <path class="a" d="m13.5,24a3.016,3.016 0 0 1 -2.175,-0.879a2.872,2.872 0 0 1 -0.902,-2.121l-5.385,0a1.5,1.5 0 0 1 -1.081,-0.445a1.426,1.426 0 0 1 -0.457,-1.055a10.385,10.385 0 0 0 1.094,-1.031a9.411,9.411 0 0 0 1.022,-1.4a10.443,10.443 0 0 0 0.894,-1.858a13.414,13.414 0 0 0 0.6,-2.414a18.912,18.912 0 0 0 0.237,-3.047a4.829,4.829 0 0 1 1.405,-3.31a6.021,6.021 0 0 1 3.69,-1.858a1.158,1.158 0 0 1 -0.1,-0.458a1.075,1.075 0 0 1 0.336,-0.8a1.181,1.181 0 0 1 1.634,0a1.072,1.072 0 0 1 0.338,0.8a1.157,1.157 0 0 1 -0.1,0.458a6.022,6.022 0 0 1 3.69,1.858a4.83,4.83 0 0 1 1.407,3.31a18.762,18.762 0 0 0 0.241,3.05a13.432,13.432 0 0 0 0.6,2.414a10.354,10.354 0 0 0 0.9,1.858a9.217,9.217 0 0 0 1.022,1.4a10.377,10.377 0 0 0 1.09,1.028a1.429,1.429 0 0 1 -0.456,1.054a1.505,1.505 0 0 1 -1.083,0.446l-5.385,0a2.873,2.873 0 0 1 -0.9,2.122a3.016,3.016 0 0 1 -2.176,0.878zm-1.923,-3.188a0.168,0.168 0 0 0 -0.193,0.188a1.972,1.972 0 0 0 0.616,1.459a2.079,2.079 0 0 0 1.5,0.6a0.188,0.188 0 1 0 0,-0.375a1.694,1.694 0 0 1 -1.22,-0.5a1.61,1.61 0 0 1 -0.511,-1.184a0.168,0.168 0 0 0 -0.192,-0.188z" id="svg_2"/>
      <rect class="b" width="27" height="27" y="0" x="0" id="svg_3"/>
    </g>
  </g>
</svg>