<svg xmlns="http://www.w3.org/2000/svg" width="88" height="30" viewBox="0 0 88 30"><defs><style>.a{fill:#fff;}.b{fill:none;}</style></defs><g transform="translate(-17 -17)"><path class="a" d="M8.141,21.924h0L.851,16.312l1.018-1.258,2.168-2.68L0,9.266,7.5,0l2.664,2.05a3.268,3.268,0,0,1,1.265,2.222,3.23,3.23,0,0,1-.7,2.427L7.365,10.85,6.074,9.856,9.431,5.707a1.665,1.665,0,0,0,.361-1.252,1.683,1.683,0,0,0-.651-1.145L7.767,2.252,2.309,9l7.374,5.676A3.266,3.266,0,0,1,10.947,16.9a3.229,3.229,0,0,1-.7,2.428l-2.1,2.6ZM5.328,13.367h0L3.16,16.046l4.71,3.626,1.084-1.34a1.663,1.663,0,0,0,.361-1.251,1.684,1.684,0,0,0-.651-1.146L5.328,13.367Z" transform="translate(31.301 21.024)"/><path class="a" d="M3.951,21.924h0L1.288,19.873a3.267,3.267,0,0,1-1.265-2.22,3.232,3.232,0,0,1,.7-2.429l3.357-4.149,1.291.993-3.357,4.15a1.663,1.663,0,0,0-.361,1.251,1.684,1.684,0,0,0,.651,1.146l1.373,1.058,5.459-6.748L1.765,7.248A3.266,3.266,0,0,1,.5,5.026,3.23,3.23,0,0,1,1.2,2.6L3.306,0,10.6,5.611,9.577,6.871,7.409,9.551l4.037,3.108L3.952,21.923ZM3.578,2.252h0L2.493,3.592a1.665,1.665,0,0,0-.361,1.252A1.683,1.683,0,0,0,2.783,5.99L6.119,8.557l2.168-2.68L3.578,2.252Z" transform="translate(21.166 21.052)"/><path class="a" d="M47.811,8.673a4.807,4.807,0,0,1-1.83-.341,4.6,4.6,0,0,1-1.444-.923,4.151,4.151,0,0,1-.945-1.365,4.226,4.226,0,0,1-.338-1.684V4.337A4.174,4.174,0,0,1,43.6,2.654a4.359,4.359,0,0,1,.952-1.378A4.451,4.451,0,0,1,46,.341,4.857,4.857,0,0,1,47.835,0a4.807,4.807,0,0,1,1.83.341,4.585,4.585,0,0,1,1.444.922,4.162,4.162,0,0,1,.946,1.366,4.246,4.246,0,0,1,.338,1.683v.024a4.174,4.174,0,0,1-.344,1.683A4.38,4.38,0,0,1,51.1,7.4a4.463,4.463,0,0,1-1.449.934A4.857,4.857,0,0,1,47.811,8.673Zm0-6.972a2.637,2.637,0,0,0-1.05.2,2.4,2.4,0,0,0-.81.562,2.646,2.646,0,0,0-.528.832,2.7,2.7,0,0,0-.191,1.013v.024a2.745,2.745,0,0,0,.191,1.018,2.536,2.536,0,0,0,.54.839,2.624,2.624,0,0,0,.823.569,2.583,2.583,0,0,0,1.05.21,2.652,2.652,0,0,0,1.044-.2,2.4,2.4,0,0,0,.816-.563,2.639,2.639,0,0,0,.528-.833,2.7,2.7,0,0,0,.191-1.012V4.337a2.747,2.747,0,0,0-.191-1.019,2.548,2.548,0,0,0-.54-.839A2.585,2.585,0,0,0,47.811,1.7ZM25.1,8.59h-1.67L19.957.144h2.088L24.292,6.05,26.54.144h2.038L25.1,8.589ZM13.62,8.531H11.729V.144H13.62V3.81L17.108.144h2.284L15.892,3.7,19.55,8.529l-2.27,0L14.615,4.96l-1,1.006V8.53Zm23.765,0H34.031V.144h3.353a5.2,5.2,0,0,1,1.848.318,4.4,4.4,0,0,1,1.449.88,3.919,3.919,0,0,1,.94,1.324,4.087,4.087,0,0,1,.332,1.647v.024a4.134,4.134,0,0,1-.332,1.653,3.9,3.9,0,0,1-.94,1.329,4.489,4.489,0,0,1-1.449.886A5.123,5.123,0,0,1,37.384,8.53ZM35.923,1.809V6.864h1.462a3,3,0,0,0,1.056-.179,2.278,2.278,0,0,0,.817-.516,2.421,2.421,0,0,0,.527-.79,2.628,2.628,0,0,0,.191-1.019V4.337a2.686,2.686,0,0,0-.191-1.019,2.4,2.4,0,0,0-.527-.8,2.366,2.366,0,0,0-.817-.521,2.922,2.922,0,0,0-1.056-.185ZM31.882,8.53H29.991V.144h1.891V8.529Zm-22.3,0H7.688V.144H9.579V8.529Zm-3.4,0H0V.144H1.892v6.72H6.178V8.529Z" transform="translate(48.441 27.663)"/><rect class="b" width="30" height="30" transform="translate(17 17)"/><rect class="b" width="88" height="30" transform="translate(17 17)"/></g></svg>