<svg xmlns="http://www.w3.org/2000/svg" width="35" height="35" viewBox="0 0 35 35"><defs><style>.a,.b{fill:#fff;}.b{stroke:#fff;stroke-width:0.6px;}.c{fill:none;}</style></defs><g transform="translate(-13.197 -15)"><path class="a" d="M-17137.986,534.047a1.227,1.227,0,0,1-.156-.009c-.025,0-.053-.006-.086-.008a3.426,3.426,0,0,1-.748-.142c-1.365-.415-1.941-1.848-1.811-4.513,0-.037.605-3.815,3.355-5.024a6.011,6.011,0,0,1,2.467-.474,17.83,17.83,0,0,1,2.672.272c.592.093,1.082.168,1.578.218a2.017,2.017,0,0,0-.088.63,8,8,0,0,0,2.711,6.005,8.039,8.039,0,0,0-2.146,3.033h-7.465C-17137.846,534.043-17137.926,534.047-17137.986,534.047Zm7.8-11.357a6.787,6.787,0,0,1-4.84-2,6.789,6.789,0,0,1-2-4.839,6.789,6.789,0,0,1,2-4.84,6.787,6.787,0,0,1,4.84-2,6.8,6.8,0,0,1,4.84,2,6.789,6.789,0,0,1,2,4.84,6.789,6.789,0,0,1-2,4.839A6.8,6.8,0,0,1-17130.184,522.69Zm0-11.481a4.642,4.642,0,0,0-4.637,4.637,4.642,4.642,0,0,0,4.637,4.637,4.642,4.642,0,0,0,4.637-4.637A4.642,4.642,0,0,0-17130.184,511.208Z" transform="translate(17160.813 -488.999)"/><path class="b" d="M3.806,15.874V14.229A7.053,7.053,0,0,1,.386,13l1.379-1.546c1.638,1.3,5.745,1.032,5.515-.734-.214-1.656-3.128-1.48-4.4-1.927-1.9-.662-3.4-2.431-2.7-4.483C.635,2.977,2.153,2.291,3.806,2.1V0H5.658V2.085A6.991,6.991,0,0,1,8.807,3.268l-1.3,1.608a5.225,5.225,0,0,0-4.667-.554,1.238,1.238,0,0,0-.107,2.143c.918.66,2.206.66,3.318.946,1.713.441,3.453,1.683,3.389,3.513a3.079,3.079,0,0,1-1.481,2.483,5.891,5.891,0,0,1-2.306.8v1.67Z" transform="translate(33.667 31.617)"/><rect class="c" width="35" height="35" transform="translate(13.197 15)"/></g></svg>