<svg xmlns="http://www.w3.org/2000/svg" width="28.638" height="34.988" viewBox="0 0 28.638 34.988"><defs><style>.a{fill:#071e57;}</style></defs><g transform="translate(-86.9)"><path class="a" d="M220.36,108.4h-1.023v25.134a3.033,3.033,0,0,1-3.029,3.029H197.7v.932a1.934,1.934,0,0,0,1.933,1.933h20.724a1.934,1.934,0,0,0,1.933-1.933V110.333A1.93,1.93,0,0,0,220.36,108.4Z" transform="translate(-106.752 -104.439)"/><path class="a" d="M99.191,31.027h10.362a1.934,1.934,0,0,0,1.933-1.933V1.933A1.934,1.934,0,0,0,109.553,0H95.746V.639a1.876,1.876,0,0,1,.011.2V6.138A2.724,2.724,0,0,1,93.035,8.86H87.74c-.055,0-.113,0-.168-.007H86.9V29.095a1.934,1.934,0,0,0,1.933,1.933H99.191Zm.391-6.569H92.826a.913.913,0,0,1,0-1.827h6.759a.913.913,0,1,1,0,1.827Zm6.759-4.662H92.826a.913.913,0,0,1,0-1.827h13.515a.913.913,0,0,1,0,1.827ZM92.826,13.018h13.515a.913.913,0,0,1,0,1.827H92.826a.913.913,0,0,1,0-1.827Z"/><path class="a" d="M88.363,8.535h5.309a1.622,1.622,0,0,0,1.608-1.608V1.615A.813.813,0,0,0,94.461.8a.792.792,0,0,0-.57.241L87.785,7.147A.814.814,0,0,0,88.363,8.535Z" transform="translate(-0.622 -0.771)"/></g></svg>